<?xml version="1.0" encoding="UTF-8" standalone="no"?>
<!DOCTYPE svg PUBLIC "-//W3C//DTD SVG 1.1//EN" "http://www.w3.org/Graphics/SVG/1.1/DTD/svg11.dtd">
<!-- Created with Vectornator (http://vectornator.io/) -->
<svg height="100%" stroke-miterlimit="10" style="fill-rule:nonzero;clip-rule:evenodd;stroke-linecap:round;stroke-linejoin:round;" version="1.1" viewBox="0 0 1024 1024" width="100%" xml:space="preserve" xmlns="http://www.w3.org/2000/svg" xmlns:vectornator="http://vectornator.io" xmlns:xlink="http://www.w3.org/1999/xlink">
<defs/>
<g id="Untitled" vectornator:layerName="Untitled">
<g opacity="1" vectornator:layerName="g4984">
<path d="M566.372 566.372C536.343 566.372 512 542.029 512 512C512 481.971 536.343 457.628 566.372 457.628C596.401 457.628 620.744 481.971 620.744 512C620.744 542.029 596.401 566.372 566.372 566.372Z" fill="#231f20" fill-rule="nonzero" opacity="1" stroke="none" vectornator:layerName="circle"/>
</g>
<g opacity="0" vectornator:layerName="g4958-1">
<path d="M609 387.906C609 421.412 579.849 448.826 544.242 448.826L231.114 448.826C195.506 448.826 166.356 421.412 166.356 387.906C166.356 354.4 195.506 326.987 231.114 326.987L544.242 326.987C579.849 326.987 609 354.37 609 387.906Z" fill="#5d5859" fill-rule="nonzero" opacity="1" stroke="none" vectornator:layerName="path"/>
<path d="M857.644 632.317C857.644 667.924 828.494 697.074 792.886 697.074L231.114 697.074C195.506 697.074 166.356 669.66 166.356 636.155C166.356 602.649 195.506 575.235 231.114 575.235L671.046 575.235C706.654 575.235 735.804 546.085 735.804 510.477L735.804 391.683C735.804 356.076 763.218 326.926 796.724 326.926C830.23 326.926 857.644 356.076 857.644 391.683L857.644 632.317Z" fill="#5d5859" fill-rule="nonzero" opacity="1" stroke="none" vectornator:layerName="path"/>
</g>
<path d="M798.498 241.402C830.152 241.402 856.066 267.316 856.066 298.97L856.066 725.174C856.066 756.828 830.152 782.741 798.498 782.741L679.567 782.741C647.913 782.741 622 758.371 622 728.586C622 698.8 647.913 674.43 679.567 674.43L709.214 674.43C740.868 674.43 747.782 648.517 747.782 616.863L747.782 407.281C747.782 375.627 740.868 349.714 709.214 349.714L679.567 349.714C647.913 349.714 622 325.344 622 295.558C622 265.772 647.913 241.402 679.567 241.402L798.498 241.402Z" fill="#231f20" fill-rule="nonzero" opacity="1" stroke="none" vectornator:layerName="path"/>
<g opacity="0" vectornator:layerName="g1433">
<path d="M318.582 389.621C318.582 425.314 291.125 454.509 257.568 454.509C224.01 454.509 196.553 425.314 196.553 389.621L196.553 251.667C196.553 216.004 225.749 186.84 261.411 186.84L409.981 186.84C445.644 186.84 474.84 214.265 474.84 247.854C474.84 281.412 445.644 308.868 409.981 308.868L383.44 308.868C347.777 308.868 318.582 338.033 318.582 373.696L318.582 389.621Z" fill="#231f20" fill-rule="nonzero" opacity="1" stroke="none" vectornator:layerName="path"/>
<path d="M735.432 634.379C735.432 598.686 762.857 569.491 796.446 569.491C830.034 569.491 857.46 598.686 857.46 634.379L857.46 772.302C857.46 807.965 828.295 837.13 792.602 837.13L644.063 837.13C608.369 837.13 579.174 809.704 579.174 776.116C579.174 742.558 608.369 715.101 644.063 715.101L670.573 715.101C706.267 715.101 735.432 685.937 735.432 650.274L735.432 634.379Z" fill="#231f20" fill-rule="nonzero" opacity="1" stroke="none" vectornator:layerName="path"/>
<path d="M397.29 715.132C432.984 715.132 462.179 742.558 462.179 776.146C462.179 809.735 432.984 837.16 397.29 837.16L259.368 837.16C223.705 837.16 194.54 807.996 194.54 772.302L194.54 623.763C194.54 588.07 221.966 558.874 255.554 558.874C289.112 558.874 316.568 588.07 316.568 623.763L316.568 650.274C316.568 685.967 345.733 715.132 381.396 715.132L397.29 715.132Z" fill="#231f20" fill-rule="nonzero" opacity="1" stroke="none" vectornator:layerName="path"/>
<path d="M654.71 308.868C619.016 308.868 589.821 281.442 589.821 247.854C589.821 214.265 619.016 186.84 654.71 186.84L792.632 186.84C828.295 186.84 857.46 216.004 857.46 251.698L857.46 400.237C857.46 435.93 830.034 465.126 796.446 465.126C762.888 465.126 735.432 435.93 735.432 400.237L735.432 373.726C735.432 338.033 706.267 308.868 670.604 308.868L654.71 308.868Z" fill="#231f20" fill-rule="nonzero" opacity="1" stroke="none" vectornator:layerName="path"/>
</g>
<g opacity="0" vectornator:layerName="g5234-9">
<path d="M336.414 573.422C336.414 609.03 309 638.18 275.494 638.18C241.988 638.18 214.574 609.03 214.574 573.422L214.574 283.414C214.574 247.806 243.724 218.656 279.332 218.656L579.971 218.656C615.579 218.656 644.729 246.07 644.729 279.576C644.729 313.082 615.579 340.496 579.971 340.496L401.172 340.496C365.564 340.496 336.414 369.646 336.414 405.253L336.414 573.422Z" fill="#231f20" fill-rule="nonzero" opacity="1" stroke="none" vectornator:layerName="path"/>
<path d="M687.586 450.547C687.586 414.939 715 385.789 748.506 385.789C782.012 385.789 809.426 414.939 809.426 450.547L809.426 740.586C809.426 776.194 780.276 805.344 744.668 805.344L444.029 805.344C408.421 805.344 379.271 777.93 379.271 744.424C379.271 710.918 408.421 683.504 444.029 683.504L622.828 683.504C658.436 683.504 687.586 654.354 687.586 618.747L687.586 450.547Z" fill="#231f20" fill-rule="nonzero" opacity="1" stroke="none" vectornator:layerName="path"/>
</g>
<path d="M418.984 256.542L188.773 461.933C185.29 465.009 182.308 468.451 179.632 472.107C179.075 472.746 178.489 473.203 177.96 473.904C169.766 484.93 166.143 498.424 166.366 511.979C166.171 525.564 169.766 539.057 177.96 550.053C178.461 550.693 179.075 551.18 179.576 551.82C182.28 555.475 185.29 558.948 188.773 562.055L419.012 767.446C444.262 789.925 480.799 787.062 500.141 761.049C519.483 735.036 514.661 695.408 489.355 672.898L330.743 531.138C328.653 529.188 310.509 510.852 331.161 492.484L331.161 492.454L489.355 351.059C514.633 328.61 519.483 288.951 500.141 262.938C480.799 236.926 444.262 234.093 418.984 256.542Z" fill="#231f20" fill-rule="nonzero" opacity="1" stroke="none" vectornator:layerName="path 3"/>
</g>
</svg>
