<?xml version="1.0" encoding="UTF-8" standalone="no"?>
<!DOCTYPE svg PUBLIC "-//W3C//DTD SVG 1.1//EN" "http://www.w3.org/Graphics/SVG/1.1/DTD/svg11.dtd">
<!-- Created with Vectornator (http://vectornator.io/) -->
<svg height="100%" stroke-miterlimit="10" style="fill-rule:nonzero;clip-rule:evenodd;stroke-linecap:round;stroke-linejoin:round;" version="1.1" viewBox="0 0 1024 1024" width="100%" xml:space="preserve" xmlns="http://www.w3.org/2000/svg" xmlns:vectornator="http://vectornator.io" xmlns:xlink="http://www.w3.org/1999/xlink">
<defs/>
<g id="Untitled" vectornator:layerName="Untitled">
<g opacity="1" vectornator:layerName="g5081-0">
<path d="M832.012 512C832.012 545.506 802.862 572.92 767.254 572.92L256.746 572.92C221.138 572.92 191.988 545.506 191.988 512C191.988 478.494 221.138 451.08 256.746 451.08L767.254 451.08C802.862 451.08 832.012 478.494 832.012 512Z" fill="#231f20" fill-rule="nonzero" opacity="1" stroke="none" vectornator:layerName="path"/>
<path d="M832.012 736.642C832.012 770.148 802.862 797.562 767.254 797.562L566.523 797.562C530.916 797.562 501.765 770.148 501.765 736.642C501.765 703.136 530.916 675.722 566.523 675.722L767.254 675.722C802.862 675.722 832.012 703.136 832.012 736.642Z" fill="#231f20" fill-rule="nonzero" opacity="1" stroke="none" vectornator:layerName="path"/>
</g>
<g opacity="1" vectornator:layerName="g4958-1">
<path d="M832.644 507.317C832.644 542.924 803.494 572.074 767.886 572.074L206.114 572.074C170.506 572.074 141.356 544.66 141.356 511.155C141.356 477.649 170.506 450.235 206.114 450.235L646.046 450.235C681.654 450.235 710.804 421.085 710.804 385.477L710.804 266.683C710.804 231.076 738.218 201.926 771.724 201.926C805.23 201.926 832.644 231.076 832.644 266.683L832.644 507.317Z" fill="#231f20" fill-rule="nonzero" opacity="1" stroke="none" vectornator:layerName="path"/>
</g>
</g>
</svg>
