<?xml version="1.0" encoding="UTF-8" standalone="no"?>
<!DOCTYPE svg PUBLIC "-//W3C//DTD SVG 1.1//EN" "http://www.w3.org/Graphics/SVG/1.1/DTD/svg11.dtd">
<!-- Created with Vectornator (http://vectornator.io/) -->
<svg height="100%" stroke-miterlimit="10" style="fill-rule:nonzero;clip-rule:evenodd;stroke-linecap:round;stroke-linejoin:round;" version="1.1" viewBox="0 0 1024 1024" width="100%" xml:space="preserve" xmlns="http://www.w3.org/2000/svg" xmlns:vectornator="http://vectornator.io" xmlns:xlink="http://www.w3.org/1999/xlink">
<defs/>
<g id="Untitled" vectornator:layerName="Untitled">
<g opacity="1" vectornator:layerName="g5081-0">
<path d="M141.988 487.487C141.988 453.981 171.138 426.567 206.746 426.567L717.254 426.567C752.862 426.567 782.012 453.981 782.012 487.487C782.012 520.993 752.862 548.407 717.254 548.407L206.746 548.407C171.138 548.407 141.988 520.993 141.988 487.487Z" fill="#231f20" fill-rule="nonzero" opacity="1" stroke="none" vectornator:layerName="path"/>
<path d="M141.988 262.845C141.988 229.34 171.138 201.926 206.746 201.926L407.477 201.926C443.084 201.926 472.234 229.34 472.234 262.845C472.234 296.351 443.084 323.765 407.477 323.765L206.746 323.765C171.138 323.765 141.988 296.351 141.988 262.845Z" fill="#231f20" fill-rule="nonzero" opacity="1" stroke="none" vectornator:layerName="path"/>
</g>
<g opacity="1" vectornator:layerName="g4958-1">
<path d="M141.356 492.171C141.356 456.563 170.506 427.413 206.114 427.413L767.886 427.413C803.494 427.413 832.644 454.827 832.644 488.333C832.644 521.839 803.494 549.252 767.886 549.252L327.954 549.252C292.346 549.252 263.196 578.403 263.196 614.01L263.196 732.804C263.196 768.411 235.782 797.562 202.276 797.562C168.77 797.562 141.356 768.411 141.356 732.804L141.356 492.171Z" fill="#231f20" fill-rule="nonzero" opacity="1" stroke="none" vectornator:layerName="path"/>
</g>
</g>
</svg>
