<?xml version="1.0" encoding="UTF-8" standalone="no"?>
<!DOCTYPE svg PUBLIC "-//W3C//DTD SVG 1.1//EN" "http://www.w3.org/Graphics/SVG/1.1/DTD/svg11.dtd">
<!-- Created with Vectornator (http://vectornator.io/) -->
<svg height="100%" stroke-miterlimit="10" style="fill-rule:nonzero;clip-rule:evenodd;stroke-linecap:round;stroke-linejoin:round;" version="1.1" viewBox="0 0 1024 1024" width="100%" xml:space="preserve" xmlns="http://www.w3.org/2000/svg" xmlns:vectornator="http://vectornator.io" xmlns:xlink="http://www.w3.org/1999/xlink">
<defs/>
<g id="Untitled" vectornator:layerName="Untitled">
<g opacity="1" vectornator:layerName="g4958-1">
<path d="M166.356 632.317C166.356 667.924 195.506 697.074 231.114 697.074L792.886 697.074C828.494 697.074 857.644 669.66 857.644 636.155C857.644 602.649 828.494 575.235 792.886 575.235L352.954 575.235C317.346 575.235 288.196 546.085 288.196 510.477L288.196 391.683C288.196 356.076 260.782 326.926 227.276 326.926C193.77 326.926 166.356 356.076 166.356 391.683L166.356 632.317Z" fill="#231f20" fill-rule="nonzero" opacity="1" stroke="none" vectornator:layerName="path"/>
</g>
<g opacity="1" vectornator:layerName="g4958-1 1">
<path d="M857.644 632.317C857.644 667.924 828.494 697.074 792.886 697.074L231.114 697.074C195.506 697.074 166.356 669.66 166.356 636.155C166.356 602.649 195.506 575.235 231.114 575.235L671.046 575.235C706.654 575.235 735.804 546.085 735.804 510.477L735.804 391.683C735.804 356.076 763.218 326.926 796.724 326.926C830.23 326.926 857.644 356.076 857.644 391.683L857.644 632.317Z" fill="#231f20" fill-rule="nonzero" opacity="1" stroke="none" vectornator:layerName="path"/>
</g>
</g>
</svg>
